<?xml version="1.0" standalone="no"?>
<!DOCTYPE svg PUBLIC "-//W3C//DTD SVG 20010904//EN"
 "http://www.w3.org/TR/2001/REC-SVG-20010904/DTD/svg10.dtd">
<svg version="1.0" xmlns="http://www.w3.org/2000/svg"
 width="750.000000pt" height="450.000000pt" viewBox="0 0 750.000000 450.000000"
 preserveAspectRatio="xMidYMid meet">
<metadata>
Created by potrace 1.15, written by Peter Selinger 2001-2017
</metadata>
<g transform="translate(0.000000,450.000000) scale(0.100000,-0.100000)"
fill="#000000" stroke="none">
<path d="M1540 4454 c-14 -2 -65 -9 -115 -15 -244 -29 -501 -118 -678 -236
-90 -59 -226 -188 -283 -269 -149 -209 -184 -460 -89 -651 75 -152 239 -242
441 -243 111 0 214 45 214 95 0 33 -28 57 -115 98 -181 88 -235 202 -186 398
88 354 386 598 795 649 119 15 305 8 391 -15 69 -19 155 -55 155 -64 -1 -3
-28 -24 -61 -45 -84 -55 -261 -210 -339 -297 -233 -259 -391 -528 -520 -884
-24 -66 -48 -126 -53 -132 -6 -9 -40 -13 -103 -13 -91 0 -94 -1 -130 -32 -34
-30 -84 -116 -84 -145 0 -7 9 -22 20 -33 17 -17 33 -20 115 -20 52 0 95 -4 95
-9 0 -17 -172 -504 -228 -646 -78 -198 -76 -275 6 -306 54 -21 203 38 276 108
71 69 123 200 261 661 l58 192 469 0 c264 0 468 -4 468 -9 0 -5 -29 -95 -64
-200 -84 -249 -100 -324 -100 -486 0 -210 44 -333 164 -459 114 -120 246 -183
401 -193 101 -7 219 15 271 50 69 47 101 134 57 157 -15 9 -43 9 -102 1 -140
-18 -263 11 -341 80 -83 72 -117 206 -96 381 21 180 68 344 190 658 168 432
208 780 125 1106 -46 180 -107 293 -229 421 l-68 73 48 21 c27 12 108 43 179
70 159 59 190 89 150 146 -49 70 -283 47 -513 -51 l-83 -35 -77 33 c-166 71
-305 97 -516 95 -83 -1 -162 -3 -176 -5z m835 -549 c138 -233 160 -517 70
-900 -14 -61 -30 -125 -36 -142 l-11 -33 -463 0 c-255 0 -466 3 -468 8 -7 11
95 267 162 408 153 320 341 564 561 730 l85 65 32 -38 c18 -21 48 -65 68 -98z"/>
<path d="M3901 4424 c-46 -20 -164 -143 -242 -254 -160 -225 -280 -463 -401
-794 -159 -438 -468 -1460 -468 -1552 0 -83 69 -140 155 -128 95 14 139 76
176 249 11 55 34 127 49 160 41 84 145 209 297 355 164 158 260 218 285 179
11 -17 -12 -78 -116 -306 -30 -67 -72 -171 -93 -230 -34 -97 -38 -118 -38
-210 0 -97 1 -103 30 -145 17 -23 51 -54 75 -68 59 -33 158 -33 243 0 81 30
216 123 313 213 l80 75 28 -64 c50 -113 148 -204 264 -243 178 -60 404 7 591
175 49 44 50 44 93 34 102 -23 223 -7 328 44 36 17 68 33 73 34 4 2 7 -25 7
-60 1 -113 61 -194 162 -218 99 -24 204 9 327 104 59 45 201 192 201 208 0 4
5 8 11 8 7 0 8 -7 4 -18 -3 -9 -26 -91 -51 -182 -73 -271 -60 -246 -171 -320
-301 -201 -522 -434 -612 -647 -60 -140 -76 -215 -76 -363 0 -131 1 -137 31
-201 43 -89 93 -142 172 -181 60 -30 76 -33 152 -33 79 0 92 3 162 37 138 69
261 227 317 411 11 38 53 218 92 400 39 183 84 389 101 459 l30 127 168 136
c396 318 576 514 542 590 -9 20 -19 25 -48 25 -31 0 -43 -7 -78 -47 -60 -70
-129 -135 -236 -222 -128 -104 -260 -204 -264 -200 -6 7 102 343 168 521 78
213 135 347 192 456 47 88 51 106 33 145 -22 48 -86 59 -154 28 -87 -39 -156
-123 -250 -306 -94 -180 -125 -235 -198 -345 -134 -202 -294 -381 -352 -396
-63 -16 -102 41 -91 134 12 98 160 462 270 661 62 112 76 150 76 202 0 62 -41
86 -129 76 -64 -8 -153 -40 -220 -79 -73 -44 -151 -119 -151 -146 0 -27 36
-52 77 -52 42 0 42 -12 -1 -98 -18 -37 -61 -137 -95 -222 -68 -169 -89 -198
-183 -246 -74 -38 -249 -72 -236 -46 2 4 25 50 51 102 60 121 81 215 74 335
-9 153 -77 316 -159 379 -135 103 -307 90 -423 -31 -81 -84 -144 -247 -145
-371 0 -75 30 -194 68 -267 36 -68 124 -169 187 -212 29 -21 29 -22 12 -41
-10 -11 -44 -34 -76 -51 -108 -57 -207 -39 -289 55 -59 66 -84 139 -90 256 -8
167 34 296 143 446 31 41 58 86 61 99 8 32 -14 72 -43 79 -31 8 -61 -13 -146
-99 -158 -162 -273 -358 -305 -518 l-17 -87 -100 -86 c-182 -157 -250 -191
-296 -150 -17 15 -20 27 -15 61 3 22 74 211 158 420 145 358 153 382 153 446
0 65 -2 70 -33 98 -25 22 -42 29 -75 29 -58 0 -136 -24 -229 -71 -165 -83
-270 -161 -431 -318 -154 -151 -143 -118 45 134 393 528 579 906 643 1306 19
120 22 330 5 374 -27 72 -76 91 -149 59z m-160 -446 c43 -81 -39 -458 -157
-718 -75 -166 -213 -400 -236 -400 -64 0 251 1011 350 1123 20 22 29 22 43 -5z
m1332 -1276 c77 -51 112 -147 112 -307 -1 -85 -6 -126 -23 -180 -32 -101 -34
-104 -74 -73 -133 101 -208 239 -208 380 0 80 31 166 67 187 28 16 95 13 126
-7z m1077 -1460 c0 -18 -142 -762 -157 -822 -8 -36 -26 -85 -38 -111 -52 -102
-165 -89 -224 26 -23 44 -26 62 -26 150 1 122 23 199 101 354 67 136 147 244
248 339 73 68 96 83 96 64z"/>
</g>
</svg>
